# xmcd CD database file
#
# Track frame offsets:
#	188
#	16238
#	37913
#	48638
#	81113
#	102488
#	124088
#	145463
#	166763
#	181388
#
# Disc length: 2701 seconds
#
# Revision: 0
# Processed by: cddbd v1.5.2PL0 Copyright (c) Steve Scherf et al.
# Submitted via: CDex 1.51
#
DISCID=7f0a8b0a
DTITLE=Varios artistas - Los 40 grandes exitos del ritmo mas caliente vol. 2
DYEAR=1993
DGENRE=Salsa
TTITLE0=Bemba colora - Celiz Cruz y la Sonora Matancera
TTITLE1=Goyito Sabater - El Gran Combo de Puerto Rico
TTITLE2=Ponte Duro - Fania all stars
TTITLE3=Las caras lindas - Ismael Rivera
TTITLE4=La lloradora - Tito Puente y La Lupe
TTITLE5=Tengo una muñeca - Gilberto Santa Rosa
TTITLE6=Tu musica popular - La Puertorriqueñña
TTITLE7=Amada mia - Cheo Feliciano
TTITLE8=Ay, Jose - Graciela y la Orquesta de Machito
TTITLE9=Ritmo en el corazon - Ray Barreto y Celia Cruz
EXTD=YEAR: 1993
EXTT0=
EXTT1=
EXTT2=
EXTT3=
EXTT4=
EXTT5=
EXTT6=
EXTT7=
EXTT8=
EXTT9=
PLAYORDER=
